<?xml version="1.0" encoding="UTF-8" standalone="no"?>
<svg
   version="1.0"
   width="325pt"
   height="225pt"
   viewBox="0 0 325 225"
   preserveAspectRatio="xMidYMid"
   id="svg1"
   xmlns="http://www.w3.org/2000/svg"
   xmlns:svg="http://www.w3.org/2000/svg">
  <defs
     id="defs1" />
  <g
     transform="matrix(0.1,0,0,-0.1,-322.80443,718.67159)"
     fill="#000000"
     stroke="none"
     id="g1">
    <path
       d="m 4687,7160 c -46,-8 -102,-60 -118,-108 -6,-19 -9,-55 -5,-81 l 6,-47 -536,-489 c -347,-316 -543,-489 -553,-486 -9,2 -43,5 -76,5 -48,1 -67,-4 -93,-22 -44,-32 -66,-77 -66,-137 0,-67 30,-117 90,-146 80,-38 159,-16 212,62 20,29 23,43 20,97 l -4,64 539,491 c 296,271 544,490 550,487 7,-3 44,-5 84,-6 l 72,-1 676,-819 c 543,-658 674,-823 669,-839 -18,-54 -16,-114 6,-152 57,-102 184,-118 262,-35 63,68 63,156 0,224 -40,43 -87,59 -150,52 l -37,-4 -675,818 -675,819 v 81 c 0,66 -4,85 -21,109 -40,53 -105,76 -177,63 z"
       id="path1" />
  </g>
</svg>
