<?xml version="1.0" standalone="no"?>
<!DOCTYPE svg PUBLIC "-//W3C//DTD SVG 20010904//EN"
 "http://www.w3.org/TR/2001/REC-SVG-20010904/DTD/svg10.dtd">
<svg version="1.0" xmlns="http://www.w3.org/2000/svg"
 width="1080.000000pt" height="1080.000000pt" viewBox="0 0 1080.000000 1080.000000"
 preserveAspectRatio="xMidYMid meet">

<g transform="translate(0.000000,1080.000000) scale(0.100000,-0.100000)"
fill="#000000" stroke="none">
<path d="M4687 7160 c-46 -8 -102 -60 -118 -108 -6 -19 -9 -55 -5 -81 l6 -47
-536 -489 c-347 -316 -543 -489 -553 -486 -9 2 -43 5 -76 5 -48 1 -67 -4 -93
-22 -44 -32 -66 -77 -66 -137 0 -67 30 -117 90 -146 80 -38 159 -16 212 62 20
29 23 43 20 97 l-4 64 539 491 c296 271 544 490 550 487 7 -3 44 -5 84 -6 l72
-1 676 -819 c543 -658 674 -823 669 -839 -18 -54 -16 -114 6 -152 57 -102 184
-118 262 -35 63 68 63 156 0 224 -40 43 -87 59 -150 52 l-37 -4 -675 818 -675
819 0 81 c0 66 -4 85 -21 109 -40 53 -105 76 -177 63z"/>
</g>
</svg>
